<?xml version="1.0" encoding="UTF-8" standalone="no"?>
<!DOCTYPE svg PUBLIC "-//W3C//DTD SVG 1.1//EN" "http://www.w3.org/Graphics/SVG/1.1/DTD/svg11.dtd">
<svg width="100%" height="100%" viewBox="0 0 214 124" version="1.1" xmlns="http://www.w3.org/2000/svg" xmlns:xlink="http://www.w3.org/1999/xlink" xml:space="preserve" xmlns:serif="http://www.serif.com/" style="fill-rule:evenodd;clip-rule:evenodd;stroke-linejoin:round;stroke-miterlimit:2;">
    <g transform="matrix(1,0,0,1,-70.9709,0)">
        <g id="cloud" transform="matrix(0.999677,0,0,0.878399,-7.76483,-134.482)">
            <rect x="78.761" y="153.099" width="213.269" height="140.369" style="fill:none;"/>
            <clipPath id="_clip1">
                <rect x="78.761" y="153.099" width="213.269" height="140.369"/>
            </clipPath>
            <g clip-path="url(#_clip1)">
                <g transform="matrix(0.718114,0,0,0.817261,-2048.4,-11.9964)">
                    <path d="M3004.57,258.579L2990.43,272.721L2976.29,266.863L2962.15,301.005L2976.29,326.863L2990.43,333.526L3004.57,338.579L3089.43,373.726L3117.71,345.442L3145.99,357.157L3188.42,314.731L3230.85,332.304L3259.13,304.02L3259.13,284.02L3230.85,272.304L3230.85,252.304L3216.7,246.447L3216.7,226.447L3160.14,203.015L3145.99,217.157L3117.71,205.442L3103.57,220.389L3089.41,213.739L3075.28,207.868L3061.14,202.01L3047,215.997L3032.86,210.294L3004.57,238.579L3004.57,258.579Z" style="fill:white;"/>
                </g>
            </g>
        </g>
    </g>
</svg>
